<?xml version="1.0" standalone="no"?>
<!DOCTYPE svg PUBLIC "-//W3C//DTD SVG 20010904//EN"
 "http://www.w3.org/TR/2001/REC-SVG-20010904/DTD/svg10.dtd">
<svg version="1.0" xmlns="http://www.w3.org/2000/svg"
 width="1437.000000pt" height="707.000000pt" viewBox="0 0 1437.000000 707.000000"
 preserveAspectRatio="xMidYMid meet">

<g transform="translate(0.000000,707.000000) scale(0.100000,-0.100000)"
fill="#000000" stroke="none">
<path d="M1709 4793 l-34 -38 38 34 c34 33 42 41 34 41 -2 0 -19 -17 -38 -37z"/>
<path d="M1550 3775 c35 -36 67 -65 69 -65 3 0 -24 29 -59 65 -35 36 -67 65
-69 65 -3 0 24 -29 59 -65z"/>
<path d="M1575 3218 l-70 -73 73 70 c67 64 77 75 69 75 -1 0 -34 -33 -72 -72z"/>
<path d="M4892 2908 c-5 -7 -42 -107 -82 -223 -76 -221 -223 -650 -317 -920
-78 -226 -143 -419 -143 -422 0 -2 71 -2 158 -1 l157 3 60 180 60 180 301 3
301 2 47 -147 c26 -82 53 -164 59 -183 l13 -35 149 -3 c82 -1 155 0 162 2 10
4 9 17 -6 58 -11 29 -46 132 -79 228 -58 169 -321 932 -404 1173 l-41 117
-192 0 c-142 0 -195 -3 -203 -12z m288 -570 c45 -139 90 -277 101 -306 10 -29
19 -55 19 -57 0 -3 -97 -5 -215 -5 -167 0 -213 3 -210 13 2 6 45 140 95 297
50 157 93 291 95 298 3 6 11 12 19 12 11 0 39 -74 96 -252z"/>
<path d="M9570 2130 l0 -790 505 0 505 0 0 125 0 125 -347 2 -348 3 -3 663 -2
662 -155 0 -155 0 0 -790z"/>
<path d="M6777 2673 c-4 -3 -7 -17 -7 -29 0 -30 -37 -129 -53 -142 -8 -7 -31
-4 -72 10 -45 16 -86 21 -165 22 -217 2 -362 -70 -432 -212 -31 -62 -33 -73
-33 -167 1 -129 22 -182 107 -260 32 -30 63 -55 69 -55 5 0 9 -6 9 -14 0 -8
-17 -20 -37 -26 -90 -29 -143 -95 -143 -178 0 -70 18 -111 70 -154 39 -34 46
-58 17 -58 -23 0 -132 -58 -154 -81 -84 -92 -67 -259 37 -353 75 -67 163 -97
345 -117 328 -35 595 54 683 228 73 143 36 358 -75 434 -83 57 -142 69 -351
69 -213 1 -268 8 -294 40 -26 32 -23 76 7 105 22 23 32 25 117 25 253 1 414
78 484 233 23 52 28 75 27 142 -1 88 -20 146 -67 203 -15 17 -26 37 -24 42 2
6 26 27 53 48 27 21 60 55 72 77 25 43 47 114 39 122 -6 6 -187 53 -207 53 -9
0 -19 -3 -22 -7z m-190 -369 c90 -65 89 -243 0 -308 -41 -30 -183 -30 -224 0
-105 76 -92 268 22 320 46 21 167 14 202 -12z m118 -979 c75 -36 73 -149 -4
-204 -90 -65 -363 -68 -459 -5 -31 20 -62 73 -62 105 0 33 38 90 70 106 39 20
412 18 455 -2z"/>
<path d="M8545 2524 c-200 -36 -354 -165 -414 -347 -42 -128 -47 -324 -11
-459 35 -129 134 -256 245 -314 114 -60 156 -69 315 -68 131 0 151 2 212 26
182 69 283 176 339 358 30 97 33 308 5 409 -45 164 -136 276 -283 348 -131 63
-243 76 -408 47z m262 -270 c58 -28 91 -66 119 -139 15 -41 19 -75 19 -185 -1
-161 -20 -225 -85 -284 -100 -90 -285 -86 -376 9 -53 55 -74 116 -81 236 -14
232 63 367 220 388 73 10 124 3 184 -25z"/>
<path d="M11235 2533 c-221 -31 -391 -163 -454 -355 -47 -142 -47 -352 0 -491
82 -244 289 -367 594 -354 170 8 257 41 353 137 44 42 92 111 92 130 0 14
-180 130 -202 130 -10 0 -18 -5 -18 -10 0 -6 -18 -30 -41 -55 -56 -60 -111
-80 -224 -80 -107 0 -165 23 -219 86 -32 38 -66 128 -66 177 l0 22 374 0 c206
0 381 3 390 6 13 5 16 27 16 138 0 197 -27 282 -123 383 -31 33 -74 65 -112
83 -93 45 -252 68 -360 53z m166 -239 c31 -9 68 -29 87 -47 33 -32 62 -105 62
-159 l0 -28 -245 0 -245 0 0 28 c0 42 43 124 83 159 66 58 161 75 258 47z"/>
<path d="M12641 2520 c-84 -23 -150 -65 -200 -131 -18 -24 -39 -44 -45 -44 -7
0 -12 31 -14 88 l-3 87 -138 0 c-117 0 -140 -2 -145 -16 -8 -20 -8 -1128 0
-1148 5 -14 28 -16 149 -16 l143 0 4 363 c4 344 5 365 26 417 25 64 79 122
136 145 49 21 174 22 213 2 40 -21 72 -59 83 -98 6 -19 10 -203 10 -431 l0
-398 151 0 150 0 -3 453 -3 452 -26 67 c-48 124 -121 185 -256 213 -90 19
-143 18 -232 -5z"/>
<path d="M13741 2525 c-101 -19 -190 -64 -244 -125 -56 -63 -77 -122 -77 -219
0 -176 105 -277 350 -336 169 -40 212 -56 241 -85 39 -38 45 -71 22 -117 -54
-112 -298 -91 -438 38 -23 21 -49 39 -56 39 -8 0 -50 -38 -92 -85 -88 -96 -88
-94 -13 -163 51 -47 134 -91 221 -118 92 -28 338 -26 419 4 118 44 181 95 228
185 26 50 37 198 19 264 -15 56 -66 120 -125 161 -49 33 -162 71 -271 92 -104
20 -164 41 -194 66 -57 47 -48 119 19 158 27 16 52 20 120 20 95 0 154 -20
223 -76 l39 -31 79 79 c43 43 79 86 79 95 0 37 -118 113 -217 140 -90 25 -241
32 -332 14z"/>
<path d="M7260 1930 l0 -591 148 3 147 3 5 350 c6 397 9 415 85 491 64 64 114
73 285 52 23 -3 25 1 47 107 28 133 27 157 -7 166 -40 11 -172 10 -215 -2 -60
-17 -119 -63 -154 -119 -17 -27 -35 -50 -41 -50 -6 0 -10 36 -10 90 l0 90
-145 0 -145 0 0 -590z"/>
<path d="M1915 2130 c-33 -33 -55 -60 -49 -60 13 0 119 108 113 114 -3 3 -32
-21 -64 -54z"/>
<path d="M1837 2053 c-11 -10 -8 -25 4 -18 5 4 127 -109 270 -252 143 -142
263 -260 267 -263 4 -2 -114 118 -263 268 -148 150 -270 272 -271 272 0 0 -4
-3 -7 -7z"/>
<path d="M2844 1618 l-19 -23 23 19 c12 11 22 21 22 23 0 8 -8 2 -26 -19z"/>
<path d="M2470 1245 c-41 -41 -72 -75 -69 -75 2 0 38 34 79 75 41 41 72 75 69
75 -2 0 -38 -34 -79 -75z"/>
<path d="M3195 700 c33 -33 62 -60 64 -60 3 0 -21 27 -54 60 -33 33 -62 60
-64 60 -3 0 21 -27 54 -60z"/>
<path d="M3239 581 c-25 -26 -49 -53 -54 -61 -4 -8 14 6 41 33 28 26 54 47 59
47 6 0 95 -84 200 -187 l190 -188 -195 200 c-107 109 -195 200 -195 200 0 1
-21 -19 -46 -44z"/>
</g>
</svg>
